<svg xmlns="http://www.w3.org/2000/svg" width="40" height="40" fill="none" viewBox="0 0 40 40"><path fill="#f0f0f0" d="M40 20a20.2 20.2 0 0 1-.63 5 20 20 0 0 1-1.354 3.696A20.05 20.05 0 0 1 31 36.706q-1.08.712-2.25 1.283l-.05.025-.318.15A19.9 19.9 0 0 1 20 40c-1.493 0-2.948-.164-4.348-.474a20 20 0 0 1-5.217-1.957 20 20 0 0 1-4.432-3.283 20.05 20.05 0 0 1-4.76-7.33 20 20 0 0 1-1.04-4.099A20.2 20.2 0 0 1 .63 15a19.9 19.9 0 0 1 3.035-6.543 20.1 20.1 0 0 1 7.635-6.47l.028-.014A19.9 19.9 0 0 1 20 0c3.118 0 6.07.714 8.7 1.986l.05.025a20 20 0 0 1 2.944 1.762 20.1 20.1 0 0 1 6.381 7.656A19.9 19.9 0 0 1 40 20"/><path fill="#0052b4" fill-rule="evenodd" d="M.203 22.857A20.2 20.2 0 0 1 .63 15a20 20 0 0 1 1.343-3.672l.011-.024a20 20 0 0 1 3.188-4.726A20.1 20.1 0 0 1 11.3 1.986l.028-.013A19.9 19.9 0 0 1 20 0v40c-1.493 0-2.948-.164-4.348-.474a20 20 0 0 1-5.217-1.957 20 20 0 0 1-4.432-3.283 20.05 20.05 0 0 1-4.76-7.33 20 20 0 0 1-1.04-4.099" clip-rule="evenodd"/><path fill="#d80027" d="M7.5 5.5v3.968a3.571 3.571 0 1 0 7.143 0V5.5z"/><path fill="#f0f0f0" d="M11.071 10.923a1.457 1.457 0 0 1-1.455-1.455V7.616h2.91v1.852c0 .802-.652 1.455-1.455 1.455"/><path fill="#ffd733" d="M28.395 21.098H22.1a2.099 2.099 0 0 0-4.198 0h-6.296c0 1.159 1.01 2.099 2.168 2.099h-.07c0 1.159.94 2.098 2.1 2.098 0 1.16.939 2.1 2.098 2.1H22.1a2.1 2.1 0 0 0 2.099-2.1c1.159 0 2.098-.94 2.098-2.099h-.07c1.16 0 2.17-.94 2.17-2.098m.861-3.358-.551.881.668.797-1.01-.252-.55.882-.073-1.037-1.01-.252.965-.39-.072-1.037.668.797zm-3.216-2.699-.216 1.018.901.52-1.035.109-.216 1.017-.423-.95-1.034.108.773-.696-.423-.95.9.52zm-3.943-1.435.144 1.03 1.024.18-.934.456.144 1.03-.722-.748-.935.456.488-.918-.722-.748 1.024.18zm-4.198 0 .489.918 1.024-.18-.723.748.489.918-.935-.456-.723.748.145-1.03-.935-.456 1.025-.18zm-3.944 1.435.773.696.9-.52-.422.95.773.696-1.034-.108-.424.95-.216-1.017-1.034-.11.9-.52zm-3.215 2.699.965.389.668-.797-.072 1.038.964.39-1.01.25-.072 1.038-.55-.881-1.01.251.669-.797z"/></svg>