<svg xmlns="http://www.w3.org/2000/svg" width="40" height="40" fill="none" viewBox="0 0 40 40"><path fill="#6da544" d="M40 20a20.2 20.2 0 0 1-.63 5 20 20 0 0 1-1.295 3.572A20.05 20.05 0 0 1 31 36.706q-1.08.712-2.25 1.283l-.05.025-.318.15A19.9 19.9 0 0 1 20 40c-1.493 0-2.948-.164-4.348-.474a20 20 0 0 1-5.217-1.957 20 20 0 0 1-4.577-3.427 20 20 0 0 1-3.933-5.57 19.9 19.9 0 0 1-1.722-5.715A20.2 20.2 0 0 1 .63 15a20 20 0 0 1 5.228-9.142A20.1 20.1 0 0 1 11.3 1.986 20 20 0 0 1 15.627.48 20 20 0 0 1 20 0c3.118 0 6.07.714 8.7 1.986l.05.025a20 20 0 0 1 2.944 1.762 20.1 20.1 0 0 1 6.381 7.656 19.9 19.9 0 0 1 1.722 5.714Q40 18.543 40 20"/><path fill="#338af3" d="M0 20h40a20.2 20.2 0 0 0-.63-5 20 20 0 0 0-1.295-3.571 20.05 20.05 0 0 0-6.381-7.656A20 20 0 0 0 28.75 2.01l-.05-.025A19.9 19.9 0 0 0 20 0a20 20 0 0 0-4.373.48 20 20 0 0 0-5.192 1.951 20 20 0 0 0-4.577 3.427A19.98 19.98 0 0 0 .203 17.143 20 20 0 0 0 0 20"/><path fill="#f0f0f0" fill-rule="evenodd" d="M5.858 5.858 20 20 5.858 34.142a20 20 0 0 1-3.933-5.57 19.9 19.9 0 0 1-1.722-5.715A20.2 20.2 0 0 1 .63 15a20 20 0 0 1 5.228-9.142" clip-rule="evenodd"/><path fill="#d80027" d="m8.5 14.217 1.298 4.202H14l-3.4 2.597 1.299 4.201-3.4-2.596-3.398 2.596 1.298-4.201L3 18.419h4.202z"/></svg>