<svg xmlns="http://www.w3.org/2000/svg" width="40" height="40" fill="none" viewBox="0 0 40 40"><path fill="#f0f0f0" d="M40 20a20.2 20.2 0 0 1-.63 5 19.9 19.9 0 0 1-2.304 5.435 20.1 20.1 0 0 1-8.316 7.554l-.05.025-.318.15A19.9 19.9 0 0 1 20 40c-1.493 0-2.948-.164-4.348-.474a20 20 0 0 1-5.217-1.957 20 20 0 0 1-4.432-3.283 20.1 20.1 0 0 1-4.078-5.715 19.9 19.9 0 0 1-1.722-5.714A20.2 20.2 0 0 1 .63 15a19.9 19.9 0 0 1 2.305-5.435A20.1 20.1 0 0 1 11.3 1.986 20 20 0 0 1 15.627.48 20 20 0 0 1 20 0c3.118 0 6.07.714 8.7 1.986l.05.025a20 20 0 0 1 3.702 2.337 20.1 20.1 0 0 1 5.623 7.08 19.9 19.9 0 0 1 1.722 5.715Q40 18.543 40 20"/><path fill="#0052b4" d="m7.549 35.652-.049-.039a20.1 20.1 0 0 1-4.565-5.178h34.13a20.1 20.1 0 0 1-4.613 5.217zM27.75 15.474h-5.167L20 11l-2.583 4.474H12.25l2.584 4.475-2.584 4.474h5.167L20 28.898l2.583-4.475h5.167l-2.584-4.474zm-4.576 4.475-1.587 2.749h-3.174l-1.587-2.75 1.587-2.748h3.174zM20 14.45l.59 1.023h-1.18zm-4.76 2.75h1.18l-.59 1.022zm0 5.497.59-1.023.59 1.023zM20 25.446l-.59-1.023h1.18zm4.76-2.748h-1.18l.59-1.023zM23.58 17.2h1.18l-.59 1.023zm8.872-12.852a20.1 20.1 0 0 1 4.614 5.217H2.935A20.1 20.1 0 0 1 7.5 4.387l.049-.04z"/></svg>