<svg xmlns="http://www.w3.org/2000/svg" width="40" height="40" fill="none" viewBox="0 0 40 40"><path fill="#6da544" d="M40 20a20.2 20.2 0 0 1-.63 5 20 20 0 0 1-1.295 3.572A20.05 20.05 0 0 1 31 36.706q-1.08.712-2.25 1.283l-.05.025-.318.15A19.9 19.9 0 0 1 20 40c-1.493 0-2.948-.164-4.348-.474a20 20 0 0 1-5.217-1.957 20 20 0 0 1-4.432-3.283 20 20 0 0 1-4.078-5.715 19.9 19.9 0 0 1-1.722-5.714A20.2 20.2 0 0 1 .63 15 20 20 0 0 1 7.5 4.387a20 20 0 0 1 5.544-3.144Q14.299.777 15.627.48A20 20 0 0 1 20 0a19.96 19.96 0 0 1 8.7 1.986l.05.025a20 20 0 0 1 2.944 1.762 20.1 20.1 0 0 1 6.381 7.656 19.9 19.9 0 0 1 1.722 5.714Q40 18.543 40 20"/><path fill="#f0f0f0" d="M26.956 38.757A20 20 0 0 1 20 40a20 20 0 0 1-4.348-.474 20 20 0 0 1-2.608-.769V1.243Q14.298.777 15.625.48A20 20 0 0 1 20 0c2.446 0 4.79.44 6.956 1.243z"/><path fill="#d80027" d="M26.957 1.243q.892.332 1.743.743l.05.025a20 20 0 0 1 5.247 3.703 20 20 0 0 1 4.078 5.715 19.9 19.9 0 0 1 1.722 5.714A20.2 20.2 0 0 1 39.37 25a20 20 0 0 1-1.295 3.572A20.05 20.05 0 0 1 31 36.706q-1.08.712-2.25 1.283l-.05.025a20 20 0 0 1-1.744.743z"/><path fill="#6da544" d="M14.783 20a5.217 5.217 0 1 0 10.434 0v-1.74H14.783z"/><path fill="#ff9811" d="M26.957 16.522h-5.218a1.74 1.74 0 0 0-3.478 0h-5.218c0 .96.837 1.739 1.797 1.739h-.057c0 .96.778 1.739 1.739 1.739 0 .96.778 1.74 1.739 1.74h3.478c.96 0 1.74-.78 1.74-1.74.96 0 1.738-.779 1.738-1.74h-.058c.96 0 1.797-.778 1.797-1.738"/></svg>