<svg xmlns="http://www.w3.org/2000/svg" width="40" height="40" fill="none" viewBox="0 0 40 40"><path fill="#f0f0f0" d="M40 20a20.2 20.2 0 0 1-.63 5 20 20 0 0 1-1.295 3.572A20.05 20.05 0 0 1 31 36.706q-1.08.712-2.25 1.283l-.05.025-.318.15A19.9 19.9 0 0 1 20 40c-1.493 0-2.948-.164-4.348-.474a20 20 0 0 1-5.217-1.957 20 20 0 0 1-4.98-3.842 20.1 20.1 0 0 1-4.01-6.248 20 20 0 0 1-1.242-4.622A20.2 20.2 0 0 1 .63 15a19.9 19.9 0 0 1 2.327-5.472A20.1 20.1 0 0 1 11.3 1.986 20 20 0 0 1 15.627.48 20 20 0 0 1 20 0c3.118 0 6.07.714 8.7 1.986l.05.025a20 20 0 0 1 2.944 1.762 20.1 20.1 0 0 1 6.381 7.656 19.9 19.9 0 0 1 1.756 5.962Q40 18.673 40 20"/><path fill="#000" fill-rule="evenodd" d="M5.455 6.273 17.39 20 5.455 33.727a20.1 20.1 0 0 1-4.01-6.248 20 20 0 0 1-1.242-4.622A20.2 20.2 0 0 1 .63 15a19.9 19.9 0 0 1 2.327-5.472 20 20 0 0 1 2.498-3.255" clip-rule="evenodd"/><path fill="#ffd733" fill-rule="evenodd" d="M17.391 20 2.957 9.528a20 20 0 0 0-1.512 2.993L8.908 20l-7.463 7.48a20 20 0 0 0 1.512 2.992z" clip-rule="evenodd"/><path fill="#6da544" fill-rule="evenodd" d="M39.831 17.391h-22.44L5.858 5.858a20 20 0 0 0-3.206 4.182L12.593 20l-9.94 9.96a20 20 0 0 0 3.205 4.182L17.39 22.61h22.44a20.2 20.2 0 0 0 0-5.218" clip-rule="evenodd"/><path fill="#0052b4" fill-rule="evenodd" d="M39.313 25.217H18.47L7.822 35.867a20 20 0 0 0 3.478 2.147 20 20 0 0 0 4.352 1.512c1.392.309 2.839.472 4.323.474h.05a19.9 19.9 0 0 0 8.675-1.986l.05-.025a20 20 0 0 0 5.247-3.703 20 20 0 0 0 4.078-5.715c.508-1.069.924-2.19 1.238-3.354" clip-rule="evenodd"/><path fill="#d80027" fill-rule="evenodd" d="M7.822 4.134A20 20 0 0 1 11.3 1.986 20 20 0 0 1 15.627.48 20 20 0 0 1 19.974 0h.052A19.9 19.9 0 0 1 28.7 1.986l.05.025a20 20 0 0 1 2.944 1.762 20.1 20.1 0 0 1 6.381 7.656c.508 1.069.924 2.19 1.238 3.354H18.47z" clip-rule="evenodd"/></svg>