<svg xmlns="http://www.w3.org/2000/svg" width="40" height="40" fill="none" viewBox="0 0 40 40"><path fill="#338af3" d="M40 20a20.2 20.2 0 0 1-.63 5 20 20 0 0 1-1.295 3.572A20.05 20.05 0 0 1 31 36.706q-1.08.712-2.25 1.283l-.05.025-.318.15A19.9 19.9 0 0 1 20 40c-1.493 0-2.948-.164-4.348-.474a20 20 0 0 1-5.217-1.957 20 20 0 0 1-4.432-3.283 20 20 0 0 1-4.078-5.715 19.9 19.9 0 0 1-1.722-5.714A20.2 20.2 0 0 1 .63 15a19.9 19.9 0 0 1 2.885-6.328 20 20 0 0 1 3.819-4.15l.01-.009A20 20 0 0 1 11.3 1.986l.028-.013A19.9 19.9 0 0 1 20 0c3.118 0 6.07.714 8.7 1.986l.05.025a20 20 0 0 1 2.944 1.762 20.1 20.1 0 0 1 6.381 7.656 19.9 19.9 0 0 1 1.722 5.714Q40 18.543 40 20"/><path fill="#ffd733" d="m18.264 33.66.472 1.475h1.53l-1.237.912.473 1.475-1.238-.912-1.238.912.473-1.475-1.238-.912h1.53zm12.184-9.655.473 1.475h1.53l-1.238.912.473 1.475-1.238-.912-1.237.912.473-1.476-1.238-.911h1.53zm3.054-14.483.472 1.475h1.53l-1.237.912.472 1.475-1.237-.912-1.238.912.473-1.475-1.238-.912h1.53zm.756 10.62.473 1.476h1.53l-1.238.911.473 1.476-1.238-.912-1.238.912.473-1.476-1.238-.911h1.53zM20.457 30.19l1.364.704 1.082-1.096-.24 1.532 1.364.704-1.512.242-.239 1.532-.695-1.382-1.51.243 1.081-1.097zm0-5.793 1.364.704 1.082-1.096-.24 1.531 1.364.704-1.512.243-.239 1.532-.695-1.382-1.51.243 1.081-1.097zm4.763 3.713 1.363.705 1.082-1.097-.24 1.532 1.363.704-1.51.243-.24 1.532-.695-1.383-1.51.243 1.081-1.096zm0-12.403 1.363.704 1.082-1.096-.24 1.532 1.363.704-1.51.243-.24 1.532-.695-1.383-1.51.243 1.081-1.096zm4.614-.148 1.364.704 1.082-1.097-.24 1.532 1.364.704-1.512.243-.239 1.532-.694-1.382-1.512.243 1.082-1.097z"/><path fill="#0052b4" fill-rule="evenodd" d="M20.005 0c-1.502 0-2.97.166-4.378.48a20 20 0 0 0-5.192 1.951A20 20 0 0 0 7.5 4.387 20 20 0 0 0 .63 15a20 20 0 0 0-.565 3.377V20h19.94z" clip-rule="evenodd"/><path fill="#f0f0f0" fill-rule="evenodd" d="M4.521 7.334 7.188 10 .23 16.958A20 20 0 0 0 0 20h2.813L10 12.813 17.188 20H20v-2.812L12.813 10 20 2.813V0a20 20 0 0 0-3.042.23L10 7.188 7.334 4.52A20 20 0 0 0 4.52 7.334" clip-rule="evenodd"/><path fill="#d80027" fill-rule="evenodd" d="M18.594 20 5.172 6.578q.669-.737 1.406-1.406L20 18.594V20z" clip-rule="evenodd"/><path fill="#d80027" fill-rule="evenodd" d="M20 0v1.406L1.406 20H0q0-.735.052-1.459L18.542.052Q19.263 0 20 0" clip-rule="evenodd"/><path fill="#f0f0f0" fill-rule="evenodd" d="M7.344 4.513v2.83l-2.823-.01a20 20 0 0 0-2.548 3.995q-.315.651-.582 1.328h5.953V20h5.312v-7.344H20V7.344h-7.344V1.39a20 20 0 0 0-1.328.582l-.028.013a20 20 0 0 0-3.956 2.527" clip-rule="evenodd"/><path fill="#d80027" fill-rule="evenodd" d="M8.672 8.672V3.515A20 20 0 0 1 11.3 1.986l.028-.013v6.699H20v2.656h-8.672V20H8.672v-8.672h-6.7q.673-1.392 1.543-2.656z" clip-rule="evenodd"/></svg>